<svg xmlns="http://www.w3.org/2000/svg" viewBox="0 0 1024 1024" width="64" height="64">
  <g>
    <rect x="0" y="0" width="1024" height="1024" rx="180" fill="#005BFF"/>
    <g transform="scale(0.9) translate(55,55)">
      <path d="M432.4 453.5l-17 46.7h34.4z" fill="#FFFFFF"/>
      <path d="M725.3 259.7H312.2c-16.5 0-30 13.5-30 30v413.1c0 16.5 13.5 30 30 30h413.1c16.5 0 30-13.5 30-30V289.7c0-16.6-13.5-30-30-30z m-98.8 164.5h25.4V550h-25.4V424.2z m-116.5 0h40.8c15.5 0 25.5 0.6 30.2 1.9 7.2 1.9 13.2 6 18.1 12.3 4.9 6.3 7.3 14.5 7.3 24.5 0 7.7-1.4 14.2-4.2 19.5s-6.4 9.4-10.7 12.4c-4.3 3-8.7 5-13.2 6-6.1 1.2-14.8 1.8-26.4 1.8h-16.6V550H510V424.2z m-90.7 0h26.9L496.5 550h-27.6l-11-28.6h-50.3L397.2 550h-27l49.1-125.8z m229.1 273.3H352.6c-19.4 0-35.1-15.7-35.1-35.1v-295c0-5.5 4.5-10 10-10s10 4.5 10 10v295c0 8.3 6.8 15.1 15.1 15.1h295.8c5.5 0 10 4.5 10 10s-4.4 10-10 10z" fill="#FFFFFF"/>
      <path d="M569.4 479.2c3.4-1.3 6-3.4 7.9-6.2 1.9-2.8 2.9-6.1 2.9-9.8 0-4.6-1.3-8.4-4-11.3-2.7-3-6.1-4.8-10.2-5.6-3-0.6-9.1-0.9-18.3-0.9h-12.3v35.7h13.9c10 0.1 16.7-0.6 20.1-1.9z" fill="#FFFFFF"/>
      <path d="M648.4 677.5H352.6c-8.3 0-15.1-6.8-15.1-15.1v-295c0-5.5-4.5-10-10-10s-10 4.5-10 10v295c0 19.4 15.7 35.1 35.1 35.1h295.8c5.5 0 10-4.5 10-10s-4.4-10-10-10z" fill="#06F3FF"/>
      <path d="M407.6 521.4h50.3l11 28.6h27.6l-50.4-125.8h-26.9l-49 125.8h27l10.4-28.6z m24.8-67.9l17.3 46.7h-34.3l17-46.7zM535.4 502.6H552c11.5 0 20.3-0.6 26.4-1.8 4.5-1 8.9-3 13.2-6 4.3-3 7.9-7.1 10.7-12.4s4.2-11.8 4.2-19.5c0-10-2.4-18.2-7.3-24.5-4.9-6.3-10.9-10.4-18.1-12.3-4.7-1.3-14.8-1.9-30.2-1.9H510V550h25.4v-47.4z m0-57.1h12.3c9.2 0 15.2 0.3 18.3 0.9 4.1 0.7 7.5 2.6 10.2 5.6 2.7 3 4 6.8 4 11.3 0 3.7-1 7-2.9 9.8-1.9 2.8-4.6 4.9-7.9 6.2-3.4 1.3-10.1 2-20.1 2h-13.9v-35.8zM626.5 424.2h25.4V550h-25.4z" fill="#005BFF"/>
    </g>
  </g>
</svg>
